<svg width="120" height="94" viewBox="0 0 120 94" fill="none" xmlns="http://www.w3.org/2000/svg">
    <path fill-rule="evenodd" clip-rule="evenodd" d="M0.224798 28.7188C0.819579 36.5209 3.7935 45.2233 7.0648 52.1252L10.6335 58.7271C12.1204 59.9274 13.6074 63.5284 19.2578 65.3289C24.6109 67.1294 27.2874 65.629 32.6404 65.0288C32.0456 65.929 31.4508 66.5292 30.8561 67.4295C30.2613 68.3297 29.6665 68.9299 29.0717 69.8301C27.8822 71.6306 26.6926 73.4311 25.8004 75.5317C24.9083 77.6323 24.3135 80.0329 24.3135 82.7337C24.3135 86.9348 25.503 87.2349 26.3952 89.6356C31.4508 94.4369 37.1013 95.3371 45.4282 92.0362C54.0526 88.4352 56.7291 83.3338 59.4056 81.2333H59.703C59.703 81.2333 59.703 81.2333 60.0004 81.2333V38.9216L53.7551 32.0197C46.9152 25.4179 39.7778 20.6166 30.2613 16.7155C24.3135 14.3148 16.2839 11.6141 9.14652 12.2143C4.98305 12.5143 2.60395 13.7147 1.41439 17.0156C-0.369957 20.6166 -0.0725932 25.1178 0.224798 28.7188Z" fill="#381F15"/>
    <path fill-rule="evenodd" clip-rule="evenodd" d="M119.775 28.7188C119.18 36.5209 116.206 45.2233 112.935 52.1252L109.367 58.7271C107.88 59.9274 106.393 63.5284 100.742 65.3289C95.3891 67.1294 92.7126 65.629 87.3596 65.0288C87.9544 65.929 88.5491 66.5292 89.1439 67.4295C89.7387 68.3297 90.3335 68.9299 90.9283 69.8301C92.1178 71.6306 93.3074 73.4311 94.1996 75.5317C95.0918 77.6323 95.6865 80.0329 95.6865 82.7337C95.6865 86.9348 94.4969 87.2349 93.6048 89.6356C88.5491 94.4369 82.8987 95.3371 74.5718 92.0362C65.9474 88.4352 63.2709 83.3338 60.5944 81.2333H60.297C60.297 81.2333 60.2978 81.2333 60.0004 81.2333V38.9216L66.2448 32.0197C73.0848 25.4179 80.2222 20.6166 89.7387 16.7155C95.6865 14.3148 103.716 11.6141 110.853 12.2143C115.314 12.5143 117.396 13.7147 118.586 17.0156C120.37 20.6166 120.073 25.1178 119.775 28.7188Z" fill="#381F15"/>
    <path d="M66.382 2.72902C68.0184 4.54837 69.0003 6.67093 69.0003 9.09672C69.0003 11.5225 68.3457 13.6451 66.7093 15.4644C65.0729 17.2838 62.782 18.1934 60.1638 18.1934C57.5456 18.1934 55.2547 17.2838 53.6183 15.4644C51.9819 13.6451 51.0001 11.5225 51.0001 9.09672C51.0001 6.67093 51.9819 4.54837 53.6183 2.72902C55.582 0.909677 57.5456 0 60.1638 0C62.4547 0 64.7457 0.909677 66.382 2.72902Z" fill="#381F15"/>
</svg>
