<svg width="54" height="42" fill="none" xmlns="http://www.w3.org/2000/svg"><path fill-rule="evenodd" clip-rule="evenodd" d="M.16 12.776c.266 3.47 1.6 7.342 3.066 10.412l1.6 2.937c.667.534 1.333 2.136 3.867 2.937 2.4.801 3.6.134 6-.133-.267.4-.534.667-.8 1.068-.267.4-.534.667-.8 1.068-.534.8-1.067 1.602-1.467 2.536a8.074 8.074 0 0 0-.667 3.204c0 1.869.534 2.002.934 3.07 2.266 2.136 4.8 2.537 8.533 1.068 3.866-1.602 5.066-3.871 6.266-4.805h.267V17.315l-2.8-3.07c-3.067-2.938-6.267-5.074-10.533-6.81-2.667-1.067-6.267-2.269-9.467-2.002-1.866.134-2.933.668-3.466 2.136-.8 1.602-.8 3.471-.534 5.207ZM53.758 12.776c-.266 3.47-1.6 7.342-3.066 10.412l-1.6 2.937c-.667.534-1.334 2.136-3.867 2.937-2.4.801-3.6.134-6-.133.267.4.534.667.8 1.068.267.4.534.667.8 1.068.534.8 1.067 1.602 1.467 2.536.4.935.667 2.002.667 3.204 0 1.869-.534 2.002-.934 3.07-2.266 2.136-4.8 2.537-8.533 1.068-3.866-1.602-5.066-3.871-6.266-4.805h-.267V17.315l2.8-3.07c3.066-2.938 6.266-5.074 10.533-6.81 2.667-1.067 6.267-2.269 9.466-2.002 2 .134 2.934.668 3.467 2.136.8 1.602.8 3.471.533 5.207Z" fill="#fff"/><path d="M29.826 1.214c.736.81 1.177 1.754 1.177 2.833 0 1.079-.294 2.023-1.03 2.833-.735.809-1.764 1.214-2.94 1.214s-2.206-.405-2.94-1.214c-.736-.81-1.177-1.754-1.177-2.833 0-1.08.441-2.024 1.176-2.833C24.975.404 25.857 0 27.032 0c1.177 0 2.06.405 2.794 1.214Z" fill="#fff"/></svg>